name C:\Users\antoi\Documents\MyRepositories\upper-imu-dc\Results\main_tracking\Case_74\kinematics.mot
datacolumns 43
datarows 13
range 4.30000000 4.54000000
endheader 
time	clav_prot	clav_elev	scapula_abduction	scapula_elevation	scapula_upward_rot	scapula_winging	plane_elv	shoulder_elv	axial_rot	TrapeziusScapula_M/activation	TrapeziusScapula_S/activation	TrapeziusScapula_I/activation	TrapeziusClavicle_S/activation	SerratusAnterior_I/activation	SerratusAnterior_M/activation	SerratusAnterior_S/activation	Rhomboideus_S/activation	Rhomboideus_I/activation	LevatorScapulae/activation	Coracobrachialis/activation	DeltoideusClavicle_A/activation	DeltoideusScapula_P/activation	DeltoideusScapula_M/activation	LatissimusDorsi_S/activation	LatissimusDorsi_M/activation	LatissimusDorsi_I/activation	PectoralisMajorClavicle_S/activation	PectoralisMajorThorax_I/activation	PectoralisMajorThorax_M/activation	TeresMajor/activation	Infraspinatus_I/activation	Infraspinatus_S/activation	PectoralisMinor/activation	TeresMinor/activation	Subscapularis_S/activation	Subscapularis_M/activation	Subscapularis_I/activation	Supraspinatus_P/activation	Supraspinatus_A/activation	TRIlong/activation	BIC_long/activation	BIC_brevis/activation	
          4.30000000	        -32.31695223	          2.21504661	        -15.24887086	         -4.74100662	         36.05560609	         -3.30123545	         -5.87837819	         54.46984995	          8.60225128	          0.01000001	          0.06529655	          0.01000000	          0.03285235	          0.05150537	          0.10875110	          0.01000008	          0.01378746	          0.01000002	          0.03219238	          0.03491791	          0.09129661	          0.01000000	          0.09973571	          0.01000000	          0.01000000	          0.01000000	          0.04275878	          0.01000000	          0.02436608	          0.01000000	          0.01831602	          0.02000682	          0.01000000	          0.01000001	          0.01354557	          0.01000001	          0.01000000	          0.03701172	          0.07347370	          0.01000000	          0.08114019	          0.03250455	
          4.32000000	        -32.51724064	          2.43171876	        -15.17973760	         -4.69481244	         36.67392216	         -3.54708109	         -5.52057696	         54.90755707	          8.55788560	          0.01000001	          0.06508244	          0.01000000	          0.03312663	          0.05109381	          0.11047166	          0.01000009	          0.01388473	          0.01000002	          0.03269503	          0.03494690	          0.09202612	          0.01000000	          0.10071682	          0.01000000	          0.01000000	          0.01000000	          0.04287114	          0.01000000	          0.02406333	          0.01000000	          0.01803693	          0.01987931	          0.01000000	          0.01000001	          0.01373442	          0.01000001	          0.01000000	          0.03719068	          0.07389585	          0.01000000	          0.08097600	          0.03250209	
          4.34000000	        -32.71325850	          2.64860807	        -15.10131389	         -4.64646326	         37.29277629	         -3.79087436	         -5.17042467	         55.35462202	          8.55427020	          0.01000001	          0.06485608	          0.01000000	          0.03340477	          0.05062314	          0.11217830	          0.01000000	          0.01398102	          0.01000002	          0.03320861	          0.03483844	          0.09254699	          0.01000000	          0.10163616	          0.01000000	          0.01000000	          0.01000000	          0.04290162	          0.01000000	          0.02363134	          0.01000000	          0.01767843	          0.01972982	          0.01000000	          0.01000001	          0.01391868	          0.01000001	          0.01000000	          0.03729805	          0.07412789	          0.01000000	          0.08065329	          0.03239153	
          4.36000000	        -32.90621606	          2.86570885	        -15.01474610	         -4.59620282	         37.91336317	         -4.03304038	         -4.82781271	         55.81078749	          8.60445750	          0.01000001	          0.06468159	          0.01000000	          0.03367473	          0.05010937	          0.11379132	          0.01030591	          0.01406317	          0.01000002	          0.03368042	          0.03456947	          0.09285007	          0.01000000	          0.10251120	          0.01000000	          0.01000000	          0.01000000	          0.04282911	          0.01000000	          0.02301819	          0.01000000	          0.01728737	          0.01961190	          0.01000000	          0.01000001	          0.01407589	          0.01000001	          0.01000000	          0.03733025	          0.07414985	          0.01000000	          0.08015133	          0.03216064	
          4.38000000	        -33.09751521	          3.08282524	        -14.92177202	         -4.54434483	         38.53641463	         -4.27393427	         -4.49285571	         56.27624659	          8.71200817	          0.01000001	          0.06453765	          0.01000000	          0.03392824	          0.04952881	          0.11530066	          0.01067694	          0.01413020	          0.01000002	          0.03411075	          0.03413248	          0.09291431	          0.01000000	          0.10334986	          0.01000000	          0.01000000	          0.01000000	          0.04264331	          0.01000000	          0.02222667	          0.01000000	          0.01691057	          0.01956332	          0.01000000	          0.01000001	          0.01418266	          0.01000001	          0.01000000	          0.03727361	          0.07393563	          0.01000000	          0.07945673	          0.03180340	
          4.40000000	        -33.28874804	          3.29947507	        -14.82455799	         -4.49137116	         39.16237332	         -4.51385595	         -4.16627895	         56.75162887	          8.87184314	          0.01000001	          0.06441337	          0.01000000	          0.03415914	          0.04886313	          0.11663988	          0.01105194	          0.01417892	          0.01000002	          0.03447216	          0.03349764	          0.09268884	          0.01000000	          0.10412013	          0.01000000	          0.01000000	          0.01000000	          0.04232200	          0.01000000	          0.02124370	          0.01000000	          0.01659314	          0.01960847	          0.01000000	          0.01000001	          0.01421552	          0.01000001	          0.01000000	          0.03710897	          0.07344080	          0.01000000	          0.07851413	          0.03129702	
          4.42000000	        -33.48159075	          3.51501804	        -14.72561435	         -4.43782860	         39.79133404	         -4.75305920	         -3.84967967	         57.23784404	          9.07146300	          0.01000001	          0.06428132	          0.01000000	          0.03433843	          0.04808155	          0.11773449	          0.01139199	          0.01420944	          0.01000002	          0.03476392	          0.03268282	          0.09215107	          0.01000000	          0.10473315	          0.01000000	          0.01000000	          0.01000000	          0.04184912	          0.01000000	          0.02007079	          0.01000000	          0.01636746	          0.01974230	          0.01000000	          0.01000001	          0.01415995	          0.01000001	          0.01000000	          0.03681958	          0.07264347	          0.01000000	          0.07732173	          0.03064959	
          4.44000000	        -33.67773924	          3.72885529	        -14.62794507	         -4.38415754	         40.42280670	         -4.99176226	         -3.54537557	         57.73570224	          9.29248079	          0.01000001	          0.06413416	          0.01000000	          0.03445603	          0.04714916	          0.11848642	          0.01170045	          0.01422590	          0.01000002	          0.03496267	          0.03167682	          0.09123552	          0.01000000	          0.10511387	          0.01000000	          0.01000000	          0.01000000	          0.04120341	          0.01000000	          0.01871962	          0.01000000	          0.01625600	          0.01995553	          0.01000000	          0.01000001	          0.01399734	          0.01000002	          0.01000000	          0.03638689	          0.07150938	          0.01000000	          0.07582028	          0.02984860	
          4.46000000	        -33.87885412	          3.94048463	        -14.53517833	         -4.33062832	         41.05546780	         -5.23011685	         -3.25627537	         58.24555289	          9.51318299	          0.01000001	          0.06393545	          0.01000000	          0.03448159	          0.04600859	          0.11879415	          0.01195877	          0.01422699	          0.01000002	          0.03505271	          0.03049633	          0.08990805	          0.01000000	          0.10514832	          0.01000000	          0.01000000	          0.01000000	          0.04036583	          0.01000000	          0.01720154	          0.01000000	          0.01625616	          0.02021803	          0.01000000	          0.01000001	          0.01372475	          0.01000002	          0.01000000	          0.03579853	          0.07001465	          0.01000000	          0.07398122	          0.02890213	
          4.48000000	        -34.08657856	          4.14934183	        -14.45171863	         -4.27744427	         41.68694960	         -5.46814730	         -2.98563596	         58.76685731	          9.71184272	          0.01000001	          0.06365316	          0.01000000	          0.03439385	          0.04463618	          0.11854340	          0.01215203	          0.01422020	          0.01000002	          0.03502263	          0.02915041	          0.08812496	          0.01000000	          0.10475077	          0.01000000	          0.01000000	          0.01000000	          0.03932127	          0.01000000	          0.01555006	          0.01000000	          0.01635198	          0.02048941	          0.01000000	          0.01000001	          0.01334143	          0.01000001	          0.01000000	          0.03504667	          0.06815099	          0.01000000	          0.07177765	          0.02781340	
          4.50000000	        -34.30253437	          4.35456938	        -14.38285515	         -4.22489486	         42.31360765	         -5.70566572	         -2.73679304	         59.29786925	          9.87014021	          0.01000001	          0.06324115	          0.01000000	          0.03416792	          0.04298732	          0.11763257	          0.01227163	          0.01419809	          0.01000002	          0.03483725	          0.02766195	          0.08585977	          0.01000000	          0.10382854	          0.01000000	          0.01000000	          0.01000000	          0.03805381	          0.01000000	          0.01381080	          0.01000000	          0.01650629	          0.02072172	          0.01000000	          0.01000001	          0.01285765	          0.01000001	          0.01000000	          0.03412422	          0.06590713	          0.01000000	          0.06921529	          0.02659552	
          4.52000000	        -34.52826376	          4.55473662	        -14.33466950	         -4.17355547	         42.93040646	         -5.94218081	         -2.51311966	         59.83534288	          9.97640953	          0.01000001	          0.06263954	          0.01000000	          0.03378083	          0.04106286	          0.11595009	          0.01230569	          0.01415679	          0.01000002	          0.03447894	          0.02603827	          0.08307212	          0.01000000	          0.10230799	          0.01000000	          0.01000000	          0.01000000	          0.03655400	          0.01000000	          0.01205075	          0.01000000	          0.01667102	          0.02086814	          0.01000000	          0.01000001	          0.01228877	          0.01000001	          0.01000000	          0.03303101	          0.06328966	          0.01000000	          0.06627410	          0.02525118	
          4.54000000	        -34.76502060	          4.74756828	        -14.31361751	         -4.12447951	         43.53090267	         -6.17677238	         -2.31842504	         60.37439321	         10.02812518	          0.01000001	          0.06177994	          0.01000000	          0.03321110	          0.03886361	          0.11342852	          0.01225148	          0.01408409	          0.01000002	          0.03391090	          0.02430303	          0.07974951	          0.01000000	          0.10011449	          0.01000000	          0.01000000	          0.01000000	          0.03481403	          0.01000000	          0.01040208	          0.01000000	          0.01679712	          0.02089230	          0.01000000	          0.01000001	          0.01165491	          0.01000001	          0.01000000	          0.03176685	          0.06030207	          0.01000000	          0.06299496	          0.02379550	
